<?xml version="1.0" encoding="iso-8859-1"?>
<!-- Generator: Adobe Illustrator 19.0.0, SVG Export Plug-In . SVG Version: 6.00 Build 0)  -->
<svg version="1.1" id="Capa_1" xmlns="http://www.w3.org/2000/svg" xmlns:xlink="http://www.w3.org/1999/xlink" x="0px" y="0px"
	 viewBox="0 0 512 512" style="enable-background:new 0 0 512 512;" xml:space="preserve">
<circle style="fill:#91E0E8;" cx="256" cy="267" r="245"/>
<path style="fill:#FF9518;" d="M222.905,90.057c0.186,0.271,0.494,0.433,0.823,0.433s0.637-0.161,0.823-0.433
	C228.03,85.012,233.754,82,239.864,82c6.109,0,11.833,3.012,15.313,8.057c0.186,0.271,0.494,0.433,0.823,0.433
	c0.329,0,0.637-0.161,0.823-0.433c3.479-5.045,9.203-8.057,15.313-8.057c6.109,0,11.833,3.012,15.313,8.057
	c0.187,0.271,0.494,0.433,0.823,0.433s0.637-0.161,0.823-0.433c3.036-4.401,7.78-7.254,12.998-7.91
	c5.016-8.196,7.909-17.832,7.909-28.145C310.002,24.178,285.824,0,256,0s-54.002,24.178-54.002,54.002
	c0,10.313,2.894,19.948,7.909,28.145C215.125,82.803,219.869,85.655,222.905,90.057z"/>
<path style="fill:#EF8318;" d="M222.905,90.057c0.186,0.271,0.494,0.433,0.823,0.433s0.637-0.161,0.823-0.433
	c1.899-2.754,4.471-4.896,7.405-6.279c-5.656-8.536-8.961-18.767-8.961-29.775c0-26.23,18.705-48.086,43.503-52.974
	C263.102,0.359,259.594,0,256,0c-29.824,0-54.002,24.178-54.002,54.002c0,10.313,2.894,19.948,7.909,28.145
	C215.125,82.803,219.869,85.655,222.905,90.057z"/>
<g>
	<path style="fill:#FFFFFF;" d="M269,41.5h-26c-4.143,0-7.5-3.357-7.5-7.5s3.357-7.5,7.5-7.5h26c4.143,0,7.5,3.357,7.5,7.5
		S273.143,41.5,269,41.5z"/>
	<path style="fill:#FFFFFF;" d="M282,64.5h-52c-4.143,0-7.5-3.357-7.5-7.5s3.357-7.5,7.5-7.5h52c4.143,0,7.5,3.357,7.5,7.5
		S286.143,64.5,282,64.5z"/>
	<path style="fill:#FFFFFF;" d="M323.929,102c0.033-0.467,0.071-0.932,0.071-1.407C324,89.771,315.228,81,304.407,81
		c-6.697,0-12.602,3.364-16.136,8.489c-3.534-5.125-9.44-8.489-16.136-8.489c-6.697,0-12.602,3.364-16.136,8.489
		C252.466,84.364,246.561,81,239.864,81c-6.696,0-12.602,3.364-16.136,8.489C220.194,84.364,214.29,81,207.594,81
		C196.773,81,188,89.771,188,100.593c0,0.476,0.038,0.94,0.071,1.407H323.929z"/>
</g>
<g>
	<path style="fill:#EEF6FF;" d="M201.784,102c-0.033-0.465-0.056-0.934-0.056-1.407c0-8.41,5.31-15.561,12.751-18.34
		c-2.143-0.807-4.461-1.253-6.886-1.253C196.773,81,188,89.771,188,100.593c0,0.476,0.038,0.94,0.071,1.407H201.784z"/>
	<path style="fill:#EEF6FF;" d="M341,207v-96c0-5.5-4.5-10-10-10H181c-5.5,0-10,4.5-10,10v96H341z"/>
</g>
<path style="fill:#D9EAFC;" d="M191,207v-96c0-5.5,4.5-10,10-10h-20c-5.5,0-10,4.5-10,10v96H191z"/>
<path style="fill:#69CDFF;" d="M341,207v-54.106c-5.082,2.314-11.23,3.676-17.865,3.676c-9.055,0-17.215-2.527-22.973-6.569
	c-5.762,4.042-13.92,6.569-22.975,6.569c-9.057,0-17.215-2.527-22.975-6.569c-5.76,4.042-13.918,6.569-22.973,6.569
	c-9.057,0-17.215-2.527-22.975-6.569c-5.762,4.042-13.92,6.569-22.975,6.569c-5.146,0-10-0.818-14.291-2.265V207H341z"/>
<g>
	<path style="fill:#52BBEF;" d="M191,207v-50.779c-1.852,0.225-3.758,0.349-5.709,0.349c-5.146,0-10-0.818-14.291-2.265V207H191z"/>
	<path style="fill:#52BBEF;" d="M341,207v-37.106c-5.082,2.314-11.23,3.676-17.865,3.676c-9.055,0-17.215-2.527-22.973-6.569
		c-5.762,4.042-13.92,6.569-22.975,6.569c-9.057,0-17.215-2.527-22.975-6.569c-5.76,4.042-13.918,6.569-22.973,6.569
		c-9.057,0-17.215-2.527-22.975-6.569c-5.762,4.042-13.92,6.569-22.975,6.569c-5.146,0-10-0.818-14.291-2.265V207H341z"/>
</g>
<path style="fill:#1E99D6;" d="M191,207v-33.779c-1.852,0.225-3.758,0.349-5.709,0.349c-5.146,0-10-0.818-14.291-2.265V207H191z"/>
<path style="fill:#2DA1DC;" d="M341,207v-20.106c-5.082,2.314-11.23,3.676-17.865,3.676c-9.055,0-17.215-2.527-22.973-6.569
	c-5.762,4.042-13.92,6.569-22.975,6.569c-9.057,0-17.215-2.527-22.975-6.569c-5.76,4.042-13.918,6.569-22.973,6.569
	c-9.057,0-17.215-2.527-22.975-6.569c-5.762,4.042-13.92,6.569-22.975,6.569c-5.146,0-10-0.818-14.291-2.265V207H341z"/>
<path style="fill:#1E8BC2;" d="M191,207v-16.779c-1.852,0.225-3.758,0.349-5.709,0.349c-5.146,0-10-0.818-14.291-2.265V207H191z"/>
<path style="fill:#FFFFFF;" d="M381,323V216c0-5.5-4.5-10-10-10H141c-5.5,0-10,4.5-10,10v107H381z"/>
<g>
	<path style="fill:#EEF6FF;" d="M143.355,255.637c-23.067-13.318-0.701-30.797,7.645-18.114V216c0-5.5,4.5-10,10-10h-20
		c-5.5,0-10,4.5-10,10v36.129C134.212,251.806,138.326,252.733,143.355,255.637z"/>
	<path style="fill:#EEF6FF;" d="M143.355,267.762c-5.028,2.902-9.143,3.83-12.355,3.508V323h20v-37.125
		C142.653,298.558,120.287,281.078,143.355,267.762z"/>
</g>
<circle style="fill:#6DC3ED;" cx="305.57" cy="293" r="12"/>
<circle style="fill:#FFD00D;" cx="203.43" cy="293" r="12"/>
<path style="fill:#FF9518;" d="M143.355,255.637c-27.84-16.074,10.5-38.209,10.5-6.064c0-32.145,38.34-10.01,10.502,6.064
	c27.838-16.074,27.838,28.197,0,12.125c27.838,16.072-10.502,38.209-10.502,6.063c0,32.147-38.34,10.01-10.5-6.063
	C115.515,283.834,115.515,239.563,143.355,255.637z"/>
<circle style="fill:#60D882;" cx="203.43" cy="231" r="12"/>
<path style="fill:#6B2CCE;" d="M245.499,255.636c-27.84-16.072,10.5-38.208,10.5-6.063c0-32.145,38.341-10.011,10.502,6.063
	c27.839-16.073,27.839,28.198,0,12.125c27.839,16.073-10.502,38.21-10.502,6.063c0,32.147-38.34,10.011-10.5-6.063
	C217.659,283.835,217.659,239.564,245.499,255.636z"/>
<circle style="fill:#FFD00D;" cx="305.57" cy="231" r="12"/>
<path style="fill:#F24976;" d="M347.644,255.637c-27.84-16.073,10.5-38.209,10.5-6.064c0-32.145,38.341-10.011,10.502,6.063
	c27.839-16.073,27.839,28.198,0.001,12.126c27.838,16.072-10.503,38.209-10.503,6.064c0,32.146-38.34,10.01-10.5-6.064
	C319.804,283.835,319.804,239.564,347.644,255.637z"/>
<path style="fill:#FFAF10;" d="M107.729,408c7.438,0,13.812,5.06,15.501,12.305c0.105,0.453,0.509,0.773,0.974,0.773
	s0.868-0.32,0.974-0.772c1.69-7.245,8.064-12.306,15.501-12.306c7.438,0,13.812,5.06,15.501,12.305
	c0.105,0.453,0.509,0.773,0.974,0.773s0.868-0.32,0.974-0.772C159.815,413.06,166.19,408,173.627,408
	c7.438,0,13.812,5.06,15.501,12.305c0.105,0.453,0.509,0.773,0.974,0.773s0.868-0.32,0.974-0.772
	c1.689-7.246,8.064-12.306,15.5-12.306c7.438,0,13.811,5.06,15.501,12.305c0.105,0.453,0.509,0.773,0.974,0.773
	s0.868-0.32,0.974-0.772c1.689-7.245,8.064-12.306,15.501-12.306c7.438,0,13.811,5.06,15.501,12.305
	c0.105,0.453,0.509,0.773,0.974,0.773c0.465,0,0.868-0.32,0.974-0.772c1.69-7.245,8.064-12.306,15.501-12.306
	c7.438,0,13.811,5.06,15.501,12.305c0.105,0.453,0.509,0.773,0.974,0.773s0.868-0.32,0.974-0.773
	c1.689-7.245,8.063-12.305,15.501-12.305s13.812,5.06,15.501,12.305c0.105,0.453,0.509,0.773,0.974,0.773s0.868-0.32,0.974-0.773
	c1.689-7.245,8.063-12.305,15.501-12.305s13.812,5.06,15.501,12.305c0.105,0.453,0.509,0.773,0.974,0.773s0.868-0.32,0.974-0.773
	c1.689-7.245,8.064-12.305,15.501-12.305s13.811,5.06,15.501,12.305c0.105,0.453,0.509,0.773,0.974,0.773s0.868-0.32,0.974-0.773
	C390.46,413.06,396.834,408,404.272,408c1.645,0,3.234,0.251,4.728,0.717V332c0-5.5-4.5-10-10-10H113c-5.5,0-10,4.5-10,10v76.717
	C104.494,408.251,106.083,408,107.729,408z"/>
<path style="fill:#EF9614;" d="M107.729,408c7.149,0,13.305,4.682,15.271,11.48V332c0-5.5,4.5-10,10-10h-20c-5.5,0-10,4.5-10,10
	v76.717C104.494,408.251,106.083,408,107.729,408z"/>
<path style="fill:#B7092B;" d="M106.393,461c41.386,31.967,93.269,51,149.607,51c56.34,0,108.223-19.033,149.608-51H106.393z"/>
<path style="fill:#F24976;" d="M122.48,82.15c1.944-1.945,4.117-1.363,4.829,1.293l6.52,24.336c0.711,2.656-0.879,4.247-3.535,3.535
	l-24.336-6.521c-2.656-0.712-3.238-2.885-1.294-4.829L122.48,82.15z"/>
<path style="fill:#FF9518;" d="M90.426,176.161c-0.001-2.751,1.947-3.875,4.328-2.501l21.819,12.598c2.381,1.376,2.382,3.625,0,5
	l-21.819,12.597c-2.381,1.375-4.329,0.25-4.329-2.499L90.426,176.161z"/>
<path style="fill:#1E8BC2;" d="M377.001,106.087c-0.001-2.751,1.947-3.875,4.328-2.5l21.819,12.597c2.381,1.376,2.382,3.625,0,5
	l-21.819,12.598c-2.381,1.374-4.329,0.25-4.329-2.5L377.001,106.087z"/>
<path style="fill:#0F9390;" d="M453.424,239.406c1.945,1.945,1.363,4.117-1.293,4.828l-24.336,6.521
	c-2.656,0.711-4.247-0.879-3.535-3.535l6.521-24.337c0.712-2.655,2.885-3.237,4.829-1.293L453.424,239.406z"/>
<path style="fill:#FFFFFF;" d="M444.645,334.575c-2.752-0.001-3.876-1.948-2.5-4.329l12.597-21.819c1.376-2.381,3.624-2.382,4.999,0
	l12.599,21.819c1.374,2.381,0.249,4.329-2.501,4.329H444.645z"/>
<path style="fill:#445EA0;" d="M61.479,266.149c1.945-1.945,4.117-1.363,4.828,1.293l6.521,24.336
	c0.711,2.656-0.879,4.247-3.535,3.535l-24.337-6.521c-2.655-0.712-3.237-2.885-1.293-4.829L61.479,266.149z"/>
<g>
	<circle style="fill:#FFFFFF;" cx="127.67" cy="368" r="11"/>
	<circle style="fill:#FFFFFF;" cx="179" cy="368" r="11"/>
	<circle style="fill:#FFFFFF;" cx="230.33" cy="368" r="11"/>
	<circle style="fill:#FFFFFF;" cx="281.67" cy="368" r="11"/>
	<circle style="fill:#FFFFFF;" cx="333" cy="368" r="11"/>
	<circle style="fill:#FFFFFF;" cx="384.33" cy="368" r="11"/>
	<path style="fill:#FFFFFF;" d="M421.203,433v-9.067c0-9.352-7.581-16.933-16.932-16.933c-8.023,0-14.729,5.587-16.475,13.078
		C386.05,412.587,379.344,407,371.321,407c-8.022,0-14.728,5.587-16.475,13.078C353.1,412.587,346.394,407,338.371,407
		c-8.022,0-14.728,5.587-16.475,13.078C320.15,412.587,313.444,407,305.421,407c-8.022,0-14.728,5.587-16.475,13.078
		C287.2,412.587,280.495,407,272.471,407c-8.023,0-14.728,5.587-16.475,13.078C254.25,412.587,247.545,407,239.521,407
		c-8.023,0-14.728,5.587-16.475,13.078C221.305,412.587,214.6,407,206.576,407c-8.023,0-14.728,5.587-16.475,13.078
		C188.355,412.587,181.65,407,173.627,407c-8.022,0-14.728,5.587-16.475,13.078c-1.746-7.491-8.451-13.078-16.475-13.078
		c-8.022,0-14.728,5.587-16.475,13.078c-1.746-7.491-8.451-13.078-16.475-13.078c-9.351,0-16.932,7.581-16.932,16.933V433H421.203z"
		/>
</g>
<path style="fill:#EEF6FF;" d="M108.594,433v-9.067c0-6.083,3.218-11.4,8.033-14.386c-2.586-1.607-5.629-2.547-8.898-2.547
	c-9.351,0-16.932,7.581-16.932,16.933V433H108.594z"/>
<path style="fill:#FE3745;" d="M482.5,457c0,2.75-2.25,5-5,5h-443c-2.75,0-5-2.25-5-5v-20c0-2.75,2.25-5,5-5h443c2.75,0,5,2.25,5,5
	V457z"/>
<path style="fill:#EA2A3D;" d="M60,457v-20c0-2.75,2.25-5,5-5H34.5c-2.75,0-5,2.25-5,5v20c0,2.75,2.25,5,5,5H65
	C62.25,462,60,459.75,60,457z"/>
<g>
</g>
<g>
</g>
<g>
</g>
<g>
</g>
<g>
</g>
<g>
</g>
<g>
</g>
<g>
</g>
<g>
</g>
<g>
</g>
<g>
</g>
<g>
</g>
<g>
</g>
<g>
</g>
<g>
</g>
</svg>
