<?xml version="1.0" encoding="iso-8859-1"?>
<!-- Generator: Adobe Illustrator 19.0.0, SVG Export Plug-In . SVG Version: 6.00 Build 0)  -->
<svg version="1.1" id="Layer_1" xmlns="http://www.w3.org/2000/svg" xmlns:xlink="http://www.w3.org/1999/xlink" x="0px" y="0px"
	 viewBox="0 0 505 505" style="enable-background:new 0 0 505 505;" xml:space="preserve">
<circle style="fill:#90DFAA;" cx="252.5" cy="252.5" r="252.5"/>
<path style="fill:#324A5E;" d="M408.5,126.8h-312c-11.9,0-21.5,9.6-21.5,21.5v208.3c0,11.9,9.6,21.5,21.5,21.5h312
	c11.9,0,21.5-9.6,21.5-21.5V148.3C430,136.5,420.4,126.8,408.5,126.8z"/>
<rect x="101.3" y="181.1" style="fill:#FFFFFF;" width="302.4" height="170.7"/>
<g>
	<circle style="fill:#ACB3BA;" cx="111.2" cy="154.3" r="9.9"/>
	<circle style="fill:#ACB3BA;" cx="142.6" cy="154.3" r="9.9"/>
	<circle style="fill:#ACB3BA;" cx="174" cy="154.3" r="9.9"/>
</g>
<g>
	<rect x="135.6" y="214.2" style="fill:#54C0EB;" width="233.8" height="16.8"/>
	<rect x="135.6" y="257.8" style="fill:#54C0EB;" width="233.8" height="16.8"/>
	<rect x="135.6" y="301.4" style="fill:#54C0EB;" width="153.6" height="16.8"/>
</g>
<g>
</g>
<g>
</g>
<g>
</g>
<g>
</g>
<g>
</g>
<g>
</g>
<g>
</g>
<g>
</g>
<g>
</g>
<g>
</g>
<g>
</g>
<g>
</g>
<g>
</g>
<g>
</g>
<g>
</g>
</svg>
