<?xml version="1.0" encoding="iso-8859-1"?>
<!-- Generator: Adobe Illustrator 19.0.0, SVG Export Plug-In . SVG Version: 6.00 Build 0)  -->
<svg version="1.1" id="Layer_1" xmlns="http://www.w3.org/2000/svg" xmlns:xlink="http://www.w3.org/1999/xlink" x="0px" y="0px"
	 viewBox="0 0 512 512" style="enable-background:new 0 0 512 512;" xml:space="preserve">
<circle style="fill:#3A99D7;" cx="255.997" cy="256" r="255.997"/>
<path style="fill:#2682BF;" d="M512,254.111L329.301,71.411l-26.799,110.66l-22.542-17.183l-52.807,59.902l-22.542-14.818
	l-49.025,147.862l14.187,14.187l-12.769,24.591L271.92,511.529c133.99-8.197,240.079-119.488,240.079-255.527
	C512,255.372,512,254.741,512,254.111z"/>
<path style="fill:#E6E6E6;" d="M161.261,374.072h193.576c4.887,0,8.827,5.359,8.827,11.98l0,0c0,6.621-3.94,11.98-8.827,11.98
	H161.261c-4.887,0-8.827-5.359-8.827-11.98l0,0C152.434,379.431,156.374,374.072,161.261,374.072z"/>
<path style="fill:#FFD630;" d="M162.837,203.195h31.843c5.99,0,10.877,4.887,10.877,10.877v135.725
	c0,5.99-4.887,10.877-10.877,10.877h-31.843c-5.99,0-10.877-4.887-10.877-10.877V214.071
	C151.96,208.082,156.848,203.195,162.837,203.195z"/>
<path style="fill:#F5BE18;" d="M178.759,203.195h15.921c5.99,0,10.877,4.887,10.877,10.877v135.725
	c0,5.99-4.887,10.877-10.877,10.877h-15.921V203.195z"/>
<path style="fill:#FFD630;" d="M238.188,158.111h31.843c5.99,0,10.877,4.887,10.877,10.877v180.808
	c0,5.99-4.887,10.877-10.877,10.877h-31.843c-5.99,0-10.877-4.887-10.877-10.877V168.987
	C227.31,162.998,232.197,158.111,238.188,158.111z"/>
<path style="fill:#F5BE18;" d="M254.108,158.111h15.921c5.99,0,10.877,4.887,10.877,10.877v180.808
	c0,5.99-4.887,10.877-10.877,10.877h-15.921L254.108,158.111L254.108,158.111z"/>
<path style="fill:#FFD630;" d="M356.098,129.264v220.532c0,5.99-4.887,10.877-10.877,10.877h-31.843
	c-5.99,0-10.877-4.887-10.877-10.877V129.264h-15.764L329.3,71.411l42.561,57.853H356.098z"/>
<path style="fill:#F5BE18;" d="M356.098,129.264v220.532c0,5.99-4.887,10.877-10.877,10.877h-15.921V71.411l42.561,57.853H356.098z"
	/>
<path style="fill:#F7F7F8;" d="M319.211,153.539l-40.827,51.547l24.118,1.104c0,0-7.093,55.488-44.769,87.015
	S180.492,314.8,180.492,314.8s42.876,13.084,89.852-7.882c46.976-20.966,58.955-65.734,58.955-100.572h21.911L319.211,153.539z"/>
<g>
</g>
<g>
</g>
<g>
</g>
<g>
</g>
<g>
</g>
<g>
</g>
<g>
</g>
<g>
</g>
<g>
</g>
<g>
</g>
<g>
</g>
<g>
</g>
<g>
</g>
<g>
</g>
<g>
</g>
</svg>
